<svg width="187" height="38" viewBox="0 0 187 38" fill="none" xmlns="http://www.w3.org/2000/svg">
<g clip-path="url(#clip0_30_57)">
<path d="M74.5529 28.9447V24.3275C74.5525 24.0694 74.466 23.8188 74.307 23.6155C74.148 23.4122 73.9257 23.2678 73.6753 23.2052L72.236 22.8432V13.9014C72.236 12.3801 71.9363 10.8737 71.3541 9.46821C70.772 8.06271 69.9187 6.78565 68.8429 5.70992C67.7672 4.6342 66.4901 3.78089 65.0846 3.19871C63.6791 2.61654 62.1727 2.31689 60.6514 2.31689H51.3838C49.8625 2.31689 48.3561 2.61654 46.9506 3.19871C45.5451 3.78089 44.268 4.6342 43.1923 5.70992C41.0198 7.88244 39.7993 10.829 39.7993 13.9014V23.169C39.7993 26.2414 41.0198 29.188 43.1923 31.3605C44.268 32.4363 45.5451 33.2896 46.9506 33.8717C48.3561 34.4539 49.8625 34.7536 51.3838 34.7536H59.493C59.5414 34.7537 59.5898 34.7507 59.6378 34.7445L68.6882 33.6129L73.1135 34.7174C73.2053 34.7411 73.2996 34.7532 73.3944 34.7536C73.7017 34.7536 73.9963 34.6315 74.2136 34.4143C74.4308 34.197 74.5529 33.9024 74.5529 33.5951V28.9447ZM51.3838 16.2183C51.3845 15.6041 51.6288 15.0151 52.0632 14.5808C52.4975 14.1464 53.0864 13.9021 53.7007 13.9014H58.3345C58.9488 13.9021 59.5377 14.1464 59.9721 14.5808C60.4064 15.0151 60.6508 15.6041 60.6514 16.2183V20.8521C60.6508 21.4664 60.4064 22.0553 59.9721 22.4897C59.5377 22.9241 58.9488 23.1684 58.3345 23.169H53.7007C53.0864 23.1684 52.4975 22.9241 52.0632 22.4897C51.6288 22.0553 51.3845 21.4664 51.3838 20.8521V16.2183ZM53.7007 25.4859H59.493C59.5414 25.4861 59.5898 25.483 59.6378 25.4769L68.6882 24.3452L72.236 25.2325V27.477L69.0415 26.6806C68.9028 26.6459 68.7588 26.6372 68.6169 26.6549L59.4206 27.8029H56.0176C55.126 27.802 54.2536 27.5443 53.5046 27.0606C52.7556 26.5769 52.1619 25.8877 51.7943 25.0754C52.3932 25.3467 53.0432 25.4867 53.7007 25.4859ZM51.3838 4.6338H60.6514C65.7617 4.6338 69.9191 8.7912 69.9191 13.9014V22.264L69.0415 22.0468C68.9028 22.0121 68.7588 22.0034 68.6169 22.0211L67.6032 22.1478V15.0599C67.6032 13.9949 67.3934 12.9403 66.9859 11.9564C66.5783 10.9725 65.9809 10.0785 65.2277 9.32544C64.4746 8.57242 63.5805 7.97513 62.5966 7.56767C61.6126 7.16021 60.558 6.95056 59.493 6.95071H50.2254C47.5703 6.9433 45.0138 7.95642 43.0846 9.78059C44.604 6.7335 47.7531 4.6338 51.3838 4.6338ZM42.1162 23.169V17.3768C42.1162 12.9055 45.7541 9.26761 50.2254 9.26761H59.493C62.6867 9.26761 65.2852 11.8662 65.2852 15.0599V22.436L62.5491 22.7781C62.8261 22.1738 62.9691 21.5168 62.9683 20.8521V16.2183C62.967 14.9898 62.4784 13.8119 61.6096 12.9432C60.7409 12.0745 59.5631 11.5859 58.3345 11.5845H51.3838C47.5511 11.5845 44.4331 14.7026 44.4331 18.5352V24.3275C44.4257 26.9826 45.4388 29.539 47.263 31.4683C44.2159 29.9489 42.1162 26.7997 42.1162 23.169ZM69.0415 31.3144C68.9028 31.2797 68.7588 31.271 68.6169 31.2887L59.4206 32.4367H54.8592C50.3879 32.4367 46.75 28.7988 46.75 24.3275V18.5352C46.7509 17.6437 47.0085 16.7712 47.4922 16.0222C47.9759 15.2733 48.6651 14.6795 49.4774 14.3119C49.2062 14.9108 49.0662 15.5609 49.0669 16.2183V23.169C49.0669 27.0017 52.185 30.1198 56.0176 30.1198H59.493C59.5414 30.1199 59.5898 30.1168 59.6378 30.1107L68.6882 28.979L72.236 29.8663V32.1108L69.0415 31.3144Z" fill="url(#paint0_linear_30_57)"/>
</g>
<path d="M31.2782 2.3169H20.8522C18.7219 2.31528 16.6122 2.73368 14.6438 3.54815C12.6753 4.36262 10.8868 5.5572 9.38046 7.06353C7.87412 8.56986 6.67955 10.3584 5.86508 12.3268C5.0506 14.2953 4.63221 16.405 4.63382 18.5352V20.8521C4.63244 22.6781 4.99107 24.4864 5.6892 26.1736C6.38732 27.8608 7.41124 29.3939 8.70238 30.685C9.99352 31.9762 11.5266 33.0001 13.2138 33.6982C14.901 34.3963 16.7093 34.755 18.5353 34.7536H31.2782C31.5855 34.7536 31.8801 34.6315 32.0974 34.4143C32.3146 34.197 32.4367 33.9024 32.4367 33.5951V24.3275C32.4367 24.0203 32.3146 23.7256 32.0974 23.5083C31.8801 23.2911 31.5855 23.169 31.2782 23.169H18.5353C17.921 23.1684 17.3321 22.9241 16.8977 22.4897C16.4633 22.0553 16.219 21.4664 16.2184 20.8521C16.2184 17.0195 19.3364 13.9014 23.1691 13.9014H31.2782C31.5855 13.9014 31.8801 13.7794 32.0974 13.5621C32.3146 13.3449 32.4367 13.0502 32.4367 12.743V3.47535C32.4367 3.16811 32.3146 2.87345 32.0974 2.6562C31.8801 2.43895 31.5855 2.3169 31.2782 2.3169ZM20.8522 4.6338H30.1198V6.95071H18.5353C15.424 6.94686 12.402 7.98992 9.95547 9.912C12.5044 6.6973 16.4417 4.6338 20.8522 4.6338ZM30.1198 25.486V27.8029H22.5898C21.6305 27.8029 20.6836 27.5861 19.8199 27.1685C18.9562 26.7509 18.1981 26.1434 17.6023 25.3915C17.9093 25.4544 18.2219 25.4861 18.5353 25.486H30.1198ZM13.9014 20.8521V21.4314C13.9014 23.7357 14.8168 25.9456 16.4462 27.575C18.0756 29.2044 20.2855 30.1198 22.5898 30.1198H30.1198V32.4367H22.0106C16.2618 32.4367 11.5845 27.7594 11.5845 22.0106C11.5845 18.76 13.5076 15.9504 16.2752 14.6584C14.7413 16.356 13.895 18.5642 13.9014 20.8521ZM19.6937 11.5845C16.9285 11.5845 14.2766 12.683 12.3214 14.6382C10.3661 16.5935 9.26763 19.2454 9.26763 22.0106C9.26557 23.6843 9.59425 25.342 10.2348 26.8883C10.8753 28.4346 11.815 29.8392 13 31.0212L13.0123 31.0331C9.40448 29.0699 6.95073 25.2412 6.95073 20.8521C6.95073 14.4644 12.1475 9.26761 18.5353 9.26761H30.1198V11.5845H19.6937Z" fill="url(#paint1_linear_30_57)"/>
<path d="M108.56 2.31689H99.2923C98.985 2.31689 98.6904 2.43895 98.4731 2.6562C98.2559 2.87345 98.1338 3.16811 98.1338 3.47535V19.6937C98.1338 20.6154 97.7677 21.4994 97.1159 22.1511C96.4642 22.8029 95.5802 23.169 94.6585 23.169C93.7367 23.169 92.8528 22.8029 92.201 22.1511C91.5493 21.4994 91.1831 20.6154 91.1831 19.6937V3.47535C91.1831 3.16811 91.0611 2.87345 90.8438 2.6562C90.6265 2.43895 90.3319 2.31689 90.0247 2.31689H80.757C80.4498 2.31689 80.1551 2.43895 79.9379 2.6562C79.7206 2.87345 79.5986 3.16811 79.5986 3.47535V20.8521C79.5972 22.6781 79.9558 24.4864 80.6539 26.1736C81.3521 27.8608 82.376 29.3939 83.6671 30.685C84.9583 31.9762 86.4913 33.0001 88.1785 33.6982C89.8658 34.3963 91.6741 34.7549 93.5 34.7536H95.8169C97.6429 34.7549 99.4512 34.3963 101.138 33.6982C102.826 33.0001 104.359 31.9762 105.65 30.685C106.941 29.3939 107.965 27.8608 108.663 26.1736C109.361 24.4864 109.72 22.6781 109.718 20.8521V3.47535C109.718 3.16811 109.596 2.87345 109.379 2.6562C109.162 2.43895 108.867 2.31689 108.56 2.31689ZM100.451 4.6338H102.768V17.3768C102.767 18.4179 102.486 19.4396 101.954 20.3346C101.422 21.2296 100.659 21.9648 99.7448 22.4631C100.209 21.614 100.452 20.6615 100.451 19.6937V4.6338ZM94.6585 25.4859H96.9754C99.1261 25.4859 101.189 24.6316 102.709 23.1108C104.23 21.5901 105.085 19.5275 105.085 17.3768V4.6338H107.401V17.956C107.401 23.3862 102.985 27.8028 97.5546 27.8028H96.9754C95.9343 27.8021 94.9126 27.521 94.0176 26.9891C93.1226 26.4572 92.3873 25.6941 91.889 24.78C92.7382 25.2444 93.6907 25.4872 94.6585 25.4859ZM81.9155 20.8521V4.6338H84.2324V23.169C84.2254 25.6688 85.0334 28.1028 86.5341 30.102C83.7306 27.9857 81.9155 24.6272 81.9155 20.8521ZM95.8169 32.4367C90.7067 32.4367 86.5493 28.2793 86.5493 23.169V4.6338H88.8662V22.0106C88.8662 24.1613 89.7206 26.2239 91.2413 27.7446C92.7621 29.2654 94.8247 30.1198 96.9754 30.1198H97.5546C100.499 30.1235 103.344 29.0554 105.558 27.115C103.494 30.3145 99.8987 32.4367 95.8169 32.4367Z" fill="url(#paint2_linear_30_57)"/>
<path d="M144.07 2.36903C143.958 2.33431 143.842 2.31673 143.725 2.3169H127.507C124.742 2.3169 122.09 3.41535 120.135 5.37062C118.179 7.32589 117.081 9.9778 117.081 12.743V15.398C117.081 16.9039 117.5 18.3801 118.292 19.6612C119.084 20.9422 120.217 21.9775 121.563 22.651L122.6 23.169H118.239C117.932 23.169 117.638 23.2911 117.42 23.5083C117.203 23.7256 117.081 24.0203 117.081 24.3275V33.5951C117.081 33.9024 117.203 34.197 117.42 34.4143C117.638 34.6315 117.932 34.7536 118.239 34.7536H134.458C137.223 34.7536 139.875 33.6551 141.83 31.6998C143.785 29.7446 144.884 27.0927 144.884 24.3275V21.6725C144.884 20.1665 144.464 18.6903 143.673 17.4093C142.881 16.1282 141.748 15.093 140.401 14.4195L139.365 13.9014H143.725C144.033 13.9014 144.327 13.7794 144.545 13.5621C144.762 13.3449 144.884 13.0502 144.884 12.743V3.47535C144.884 3.22826 144.805 2.98762 144.659 2.78858C144.512 2.58955 144.306 2.44254 144.07 2.36903ZM127.507 4.6338H142.567V6.95071H125.19C123.609 6.94655 122.062 7.40787 120.742 8.27713C122.195 6.08368 124.683 4.6338 127.507 4.6338ZM119.398 15.398V15.0599C119.398 11.8662 121.996 9.26761 125.19 9.26761H142.567V11.5845H125.737C124.831 11.5845 123.951 11.8905 123.241 12.4528C122.53 13.0151 122.031 13.8009 121.822 14.6827C121.614 15.5646 121.71 16.4909 122.094 17.3117C122.478 18.1324 123.128 18.7994 123.938 19.2046L131.868 23.169H127.78L122.6 20.5788C121.635 20.1007 120.824 19.3619 120.258 18.4462C119.692 17.5305 119.394 16.4745 119.398 15.398ZM127.385 15.1355L136.992 19.9384C137.335 20.1103 137.611 20.3933 137.774 20.7414C137.936 21.0894 137.977 21.4823 137.888 21.8562C137.8 22.2301 137.588 22.5632 137.286 22.8015C136.985 23.0398 136.612 23.1693 136.228 23.169H135.564C135.5 22.9039 135.379 22.6559 135.209 22.4427C135.039 22.2295 134.824 22.0561 134.58 21.9349L124.973 17.1321C124.629 16.9601 124.354 16.6772 124.191 16.3291C124.028 15.981 123.988 15.5882 124.076 15.2143C124.165 14.8404 124.377 14.5073 124.678 14.269C124.98 14.0307 125.353 13.9012 125.737 13.9014H126.401C126.464 14.1666 126.586 14.4145 126.756 14.6278C126.926 14.841 127.14 15.0143 127.385 15.1355ZM134.458 32.4367H119.398V30.1198H136.775C138.355 30.1239 139.902 29.6626 141.223 28.7933C139.77 30.9886 137.281 32.4367 134.458 32.4367ZM142.567 21.6725V22.0106C142.567 25.2043 139.968 27.8029 136.775 27.8029H119.398V25.4859H136.228C137.134 25.486 138.013 25.18 138.724 24.6177C139.434 24.0554 139.934 23.2696 140.142 22.3877C140.351 21.5059 140.255 20.5795 139.871 19.7588C139.487 18.9381 138.837 18.2711 138.027 17.8659L130.098 13.9014H134.184L139.365 16.4916C140.329 16.9698 141.141 17.7086 141.707 18.6243C142.272 19.54 142.571 20.596 142.567 21.6725Z" fill="url(#paint3_linear_30_57)"/>
<path d="M183.525 2.31689H155.722C155.415 2.31689 155.12 2.43895 154.903 2.6562C154.685 2.87345 154.563 3.16811 154.563 3.47535V12.743C154.563 13.0502 154.685 13.3449 154.903 13.5621C155.12 13.7794 155.415 13.9014 155.722 13.9014H163.831V33.5951C163.831 33.9024 163.953 34.197 164.17 34.4143C164.387 34.6315 164.682 34.7536 164.989 34.7536H174.257C174.564 34.7536 174.859 34.6315 175.076 34.4143C175.293 34.197 175.415 33.9024 175.415 33.5951V13.9014H183.525C183.832 13.9014 184.127 13.7794 184.344 13.5621C184.561 13.3449 184.683 13.0502 184.683 12.743V3.47535C184.683 3.16811 184.561 2.87345 184.344 2.6562C184.127 2.43895 183.832 2.31689 183.525 2.31689ZM182.366 4.6338V6.95071H156.88V4.6338H182.366ZM166.148 13.9014H168.465V32.4367H166.148V13.9014ZM173.099 32.4367H170.782V12.743C170.782 12.4357 170.66 12.1411 170.442 11.9238C170.225 11.7066 169.93 11.5845 169.623 11.5845H156.88V9.26761H170.782C171.396 9.26828 171.985 9.5126 172.419 9.94696C172.854 10.3813 173.098 10.9702 173.099 11.5845V32.4367ZM175.415 11.5845C175.416 10.7708 175.202 9.97142 174.793 9.26761H182.366V11.5845H175.415Z" fill="url(#paint4_linear_30_57)"/>
<defs>
<linearGradient id="paint0_linear_30_57" x1="39.7478" y1="2.36838" x2="74.5529" y2="34.8051" gradientUnits="userSpaceOnUse">
<stop stop-color="#72138B"/>
<stop offset="0.494792" stop-color="#7B86E7" stop-opacity="0.7298"/>
<stop offset="1" stop-color="white" stop-opacity="0.5"/>
</linearGradient>
<linearGradient id="paint1_linear_30_57" x1="32.4367" y1="2.36838" x2="4.63382" y2="34.8051" gradientUnits="userSpaceOnUse">
<stop stop-color="#72138B"/>
<stop offset="0.505208" stop-color="#7B86E7" stop-opacity="0.7298"/>
<stop offset="0.953125" stop-color="white" stop-opacity="0.5"/>
</linearGradient>
<linearGradient id="paint2_linear_30_57" x1="94.6327" y1="34.8051" x2="94.6327" y2="2.36838" gradientUnits="userSpaceOnUse">
<stop stop-color="white" stop-opacity="0.65"/>
<stop offset="0.484375" stop-color="#7B86E7" stop-opacity="0.7298"/>
<stop offset="1" stop-color="#72138B"/>
</linearGradient>
<linearGradient id="paint3_linear_30_57" x1="144.884" y1="2.36838" x2="116.669" y2="34.8051" gradientUnits="userSpaceOnUse">
<stop stop-color="#721377"/>
<stop offset="0.517243" stop-color="#7B86E7" stop-opacity="0.729797"/>
<stop offset="1" stop-color="white" stop-opacity="0.5"/>
</linearGradient>
<linearGradient id="paint4_linear_30_57" x1="154.563" y1="2.36838" x2="184.735" y2="34.8051" gradientUnits="userSpaceOnUse">
<stop stop-color="white" stop-opacity="0.5"/>
<stop offset="0.330265" stop-color="#7B86E7" stop-opacity="0.7298"/>
<stop offset="0.801389" stop-color="#721377"/>
</linearGradient>
<clipPath id="clip0_30_57">
<rect width="37.0705" height="37.0705" fill="white" transform="translate(37.4824)"/>
</clipPath>
</defs>
</svg>
