<svg width="140" height="79" viewBox="0 0 140 79" fill="none" xmlns="http://www.w3.org/2000/svg">
<rect width="140" height="79" rx="15" fill="#DFE1F1"/>
<path d="M70 20C58.9554 20 50 29.1875 50 40.5089C50 49.5714 55.7321 57.25 63.6786 59.9643C63.79 59.9885 63.9038 60.0005 64.0179 60C64.7589 60 65.0446 59.4554 65.0446 58.9821C65.0446 58.4911 65.0268 57.2054 65.0179 55.4911C64.3563 55.6462 63.6795 55.727 63 55.7321C59.1518 55.7321 58.2768 52.7411 58.2768 52.7411C57.3661 50.375 56.0536 49.7411 56.0536 49.7411C54.3125 48.5179 56.0446 48.4821 56.1786 48.4821H56.1875C58.1964 48.6607 59.25 50.6071 59.25 50.6071C60.25 52.3571 61.5893 52.8482 62.7857 52.8482C63.5768 52.8324 64.3557 52.6498 65.0714 52.3125C65.25 50.9911 65.7679 50.0893 66.3393 49.5714C61.9018 49.0536 57.2321 47.2946 57.2321 39.4375C57.2321 37.1964 58.0089 35.3661 59.2857 33.9375C59.0804 33.4196 58.3929 31.3304 59.4821 28.5089C59.6283 28.474 59.7784 28.4589 59.9286 28.4643C60.6518 28.4643 62.2857 28.7411 64.9821 30.6161C68.2585 29.6994 71.7236 29.6994 75 30.6161C77.6964 28.7411 79.3304 28.4643 80.0536 28.4643C80.2037 28.4589 80.3539 28.474 80.5 28.5089C81.5893 31.3304 80.9018 33.4196 80.6964 33.9375C81.9732 35.375 82.75 37.2054 82.75 39.4375C82.75 47.3125 78.0714 49.0446 73.6161 49.5536C74.3304 50.1875 74.9732 51.4375 74.9732 53.3482C74.9732 56.0893 74.9464 58.3036 74.9464 58.9732C74.9464 59.4554 75.2232 60 75.9643 60C76.0842 60.0005 76.2039 59.9886 76.3214 59.9643C84.2768 57.25 90 49.5625 90 40.5089C90 29.1875 81.0446 20 70 20Z" fill="black"/>
</svg>
