<svg width="140" height="79" viewBox="0 0 140 79" fill="none" xmlns="http://www.w3.org/2000/svg">
<rect width="140" height="79" rx="15" fill="#DFE1F1"/>
<path d="M89.7643 36.2451L89.5586 35.3722H70.5879V43.4014H81.9226C80.7458 48.9895 75.2851 51.9311 70.8246 51.9311C67.5791 51.9311 64.1579 50.5659 61.8935 48.3716C60.6988 47.1953 59.7479 45.795 59.0951 44.2508C58.4423 42.7066 58.1004 41.0487 58.0892 39.3722C58.0892 35.9902 59.6091 32.6073 61.8207 30.382C64.0323 28.1568 67.3725 26.9117 70.6935 26.9117C74.4969 26.9117 77.2228 28.9313 78.2421 29.8523L83.9477 24.1768C82.2739 22.706 77.676 19 70.5097 19C64.9807 19 59.6792 21.1179 55.8039 24.9804C51.9795 28.7838 50 34.2837 50 39.3868C50 44.4899 51.873 49.7149 55.5791 53.5484C59.539 57.6366 65.1472 59.7736 70.922 59.7736C76.1761 59.7736 81.1563 57.7149 84.7058 53.9798C88.1952 50.3028 90 45.2152 90 39.8819C90 37.6366 89.7743 36.3033 89.7643 36.2451Z" fill="#C44D4D"/>
</svg>
